<?xml version="1.0" encoding="UTF-8" standalone="no"?><svg xmlns="http://www.w3.org/2000/svg" xmlns:xlink="http://www.w3.org/1999/xlink" contentScriptType="application/ecmascript" contentStyleType="text/css" height="559px" preserveAspectRatio="none" style="width:890px;height:559px;" version="1.1" viewBox="0 0 890 559" width="890px" zoomAndPan="magnify"><defs><filter height="300%" id="ft8flu1" width="300%" x="-1" y="-1"><feGaussianBlur result="blurOut" stdDeviation="2.0"/><feColorMatrix in="blurOut" result="blurOut2" type="matrix" values="0 0 0 0 0 0 0 0 0 0 0 0 0 0 0 0 0 0 .4 0"/><feOffset dx="4.0" dy="4.0" in="blurOut2" result="blurOut3"/><feBlend in="SourceGraphic" in2="blurOut3" mode="normal"/></filter></defs><g><line style="stroke: #A80036; stroke-width: 1.0; stroke-dasharray: 5.0,5.0;" x1="80" x2="80" y1="38.2969" y2="521.2891"/><line style="stroke: #A80036; stroke-width: 1.0; stroke-dasharray: 5.0,5.0;" x1="310" x2="310" y1="38.2969" y2="521.2891"/><line style="stroke: #A80036; stroke-width: 1.0; stroke-dasharray: 5.0,5.0;" x1="425" x2="425" y1="38.2969" y2="521.2891"/><line style="stroke: #A80036; stroke-width: 1.0; stroke-dasharray: 5.0,5.0;" x1="526" x2="526" y1="38.2969" y2="521.2891"/><line style="stroke: #A80036; stroke-width: 1.0; stroke-dasharray: 5.0,5.0;" x1="711" x2="711" y1="38.2969" y2="521.2891"/><line style="stroke: #A80036; stroke-width: 1.0; stroke-dasharray: 5.0,5.0;" x1="818.5" x2="818.5" y1="38.2969" y2="521.2891"/><rect fill="#FEFECE" filter="url(#ft8flu1)" height="30.2969" style="stroke: #A80036; stroke-width: 1.5;" width="140" x="8" y="3"/><text fill="#000000" font-family="sans-serif" font-size="14" lengthAdjust="spacingAndGlyphs" textLength="126" x="15" y="22.9951">ThreadEbpfStarter</text><rect fill="#FEFECE" filter="url(#ft8flu1)" height="30.2969" style="stroke: #A80036; stroke-width: 1.5;" width="140" x="8" y="520.2891"/><text fill="#000000" font-family="sans-serif" font-size="14" lengthAdjust="spacingAndGlyphs" textLength="126" x="15" y="540.2842">ThreadEbpfStarter</text><rect fill="#FEFECE" filter="url(#ft8flu1)" height="30.2969" style="stroke: #A80036; stroke-width: 1.5;" width="104" x="256" y="3"/><text fill="#000000" font-family="sans-serif" font-size="14" lengthAdjust="spacingAndGlyphs" textLength="90" x="263" y="22.9951">FileController</text><rect fill="#FEFECE" filter="url(#ft8flu1)" height="30.2969" style="stroke: #A80036; stroke-width: 1.5;" width="104" x="256" y="520.2891"/><text fill="#000000" font-family="sans-serif" font-size="14" lengthAdjust="spacingAndGlyphs" textLength="90" x="263" y="540.2842">FileController</text><rect fill="#FEFECE" filter="url(#ft8flu1)" height="30.2969" style="stroke: #A80036; stroke-width: 1.5;" width="94" x="376" y="3"/><text fill="#000000" font-family="sans-serif" font-size="14" lengthAdjust="spacingAndGlyphs" textLength="80" x="383" y="22.9951">ThreadEbfp</text><rect fill="#FEFECE" filter="url(#ft8flu1)" height="30.2969" style="stroke: #A80036; stroke-width: 1.5;" width="94" x="376" y="520.2891"/><text fill="#000000" font-family="sans-serif" font-size="14" lengthAdjust="spacingAndGlyphs" textLength="80" x="383" y="540.2842">ThreadEbfp</text><rect fill="#FEFECE" filter="url(#ft8flu1)" height="30.2969" style="stroke: #A80036; stroke-width: 1.5;" width="50" x="499" y="3"/><text fill="#000000" font-family="sans-serif" font-size="14" lengthAdjust="spacingAndGlyphs" textLength="36" x="506" y="22.9951">eBPF</text><rect fill="#FEFECE" filter="url(#ft8flu1)" height="30.2969" style="stroke: #A80036; stroke-width: 1.5;" width="50" x="499" y="520.2891"/><text fill="#000000" font-family="sans-serif" font-size="14" lengthAdjust="spacingAndGlyphs" textLength="36" x="506" y="540.2842">eBPF</text><rect fill="#FEFECE" filter="url(#ft8flu1)" height="30.2969" style="stroke: #A80036; stroke-width: 1.5;" width="56" x="681" y="3"/><text fill="#000000" font-family="sans-serif" font-size="14" lengthAdjust="spacingAndGlyphs" textLength="42" x="688" y="22.9951">Graph</text><rect fill="#FEFECE" filter="url(#ft8flu1)" height="30.2969" style="stroke: #A80036; stroke-width: 1.5;" width="56" x="681" y="520.2891"/><text fill="#000000" font-family="sans-serif" font-size="14" lengthAdjust="spacingAndGlyphs" textLength="42" x="688" y="540.2842">Graph</text><rect fill="#FEFECE" filter="url(#ft8flu1)" height="30.2969" style="stroke: #A80036; stroke-width: 1.5;" width="129" x="752.5" y="3"/><text fill="#000000" font-family="sans-serif" font-size="14" lengthAdjust="spacingAndGlyphs" textLength="115" x="759.5" y="22.9951">OutPutController</text><rect fill="#FEFECE" filter="url(#ft8flu1)" height="30.2969" style="stroke: #A80036; stroke-width: 1.5;" width="129" x="752.5" y="520.2891"/><text fill="#000000" font-family="sans-serif" font-size="14" lengthAdjust="spacingAndGlyphs" textLength="115" x="759.5" y="540.2842">OutPutController</text><polygon fill="#A80036" points="298,65.2969,308,69.2969,298,73.2969,302,69.2969" style="stroke: #A80036; stroke-width: 1.0;"/><line style="stroke: #A80036; stroke-width: 1.0;" x1="80" x2="304" y1="69.2969" y2="69.2969"/><text fill="#000000" font-family="sans-serif" font-size="13" lengthAdjust="spacingAndGlyphs" textLength="206" x="87" y="64.3638">receiveFileName(const char* fn)</text><polygon fill="#A80036" points="413,94.4297,423,98.4297,413,102.4297,417,98.4297" style="stroke: #A80036; stroke-width: 1.0;"/><line style="stroke: #A80036; stroke-width: 1.0;" x1="80" x2="419" y1="98.4297" y2="98.4297"/><text fill="#000000" font-family="sans-serif" font-size="13" lengthAdjust="spacingAndGlyphs" textLength="40" x="87" y="93.4966">start()</text><line style="stroke: #A80036; stroke-width: 1.0;" x1="425" x2="467" y1="127.6953" y2="127.6953"/><line style="stroke: #A80036; stroke-width: 1.0;" x1="467" x2="467" y1="127.6953" y2="140.6953"/><line style="stroke: #A80036; stroke-width: 1.0;" x1="426" x2="467" y1="140.6953" y2="140.6953"/><polygon fill="#A80036" points="436,136.6953,426,140.6953,436,144.6953,432,140.6953" style="stroke: #A80036; stroke-width: 1.0;"/><text fill="#000000" font-family="sans-serif" font-size="13" lengthAdjust="spacingAndGlyphs" textLength="31" x="432" y="122.6294">run()</text><polygon fill="#A80036" points="321,165.6953,311,169.6953,321,173.6953,317,169.6953" style="stroke: #A80036; stroke-width: 1.0;"/><line style="stroke: #A80036; stroke-width: 1.0;" x1="315" x2="424" y1="169.6953" y2="169.6953"/><text fill="#000000" font-family="sans-serif" font-size="13" lengthAdjust="spacingAndGlyphs" textLength="91" x="327" y="164.7622">getFileName()</text><polygon fill="#A80036" points="514,194.8281,524,198.8281,514,202.8281,518,198.8281" style="stroke: #A80036; stroke-width: 1.0;"/><line style="stroke: #A80036; stroke-width: 1.0;" x1="425" x2="520" y1="198.8281" y2="198.8281"/><text fill="#000000" font-family="sans-serif" font-size="13" lengthAdjust="spacingAndGlyphs" textLength="77" x="432" y="193.895">read_code()</text><polygon fill="#A80036" points="699,223.9609,709,227.9609,699,231.9609,703,227.9609" style="stroke: #A80036; stroke-width: 1.0;"/><line style="stroke: #A80036; stroke-width: 1.0;" x1="526" x2="705" y1="227.9609" y2="227.9609"/><text fill="#000000" font-family="sans-serif" font-size="13" lengthAdjust="spacingAndGlyphs" textLength="73" x="533" y="223.0278">add_node()</text><polygon fill="#A80036" points="514,253.0938,524,257.0938,514,261.0938,518,257.0938" style="stroke: #A80036; stroke-width: 1.0;"/><line style="stroke: #A80036; stroke-width: 1.0;" x1="425" x2="520" y1="257.0938" y2="257.0938"/><text fill="#000000" font-family="sans-serif" font-size="13" lengthAdjust="spacingAndGlyphs" textLength="44" x="432" y="252.1606">verify()</text><polygon fill="#A80036" points="699,282.2266,709,286.2266,699,290.2266,703,286.2266" style="stroke: #A80036; stroke-width: 1.0;"/><line style="stroke: #A80036; stroke-width: 1.0;" x1="526" x2="705" y1="286.2266" y2="286.2266"/><text fill="#000000" font-family="sans-serif" font-size="13" lengthAdjust="spacingAndGlyphs" textLength="44" x="533" y="281.2935">verify()</text><line style="stroke: #A80036; stroke-width: 1.0;" x1="711" x2="753" y1="315.4922" y2="315.4922"/><line style="stroke: #A80036; stroke-width: 1.0;" x1="753" x2="753" y1="315.4922" y2="328.4922"/><line style="stroke: #A80036; stroke-width: 1.0;" x1="712" x2="753" y1="328.4922" y2="328.4922"/><polygon fill="#A80036" points="722,324.4922,712,328.4922,722,332.4922,718,328.4922" style="stroke: #A80036; stroke-width: 1.0;"/><text fill="#000000" font-family="sans-serif" font-size="13" lengthAdjust="spacingAndGlyphs" textLength="94" x="718" y="310.4263">DFS_wrapper()</text><polygon fill="#A80036" points="699,353.4922,709,357.4922,699,361.4922,703,357.4922" style="stroke: #A80036; stroke-width: 1.0;"/><line style="stroke: #A80036; stroke-width: 1.0;" x1="526" x2="705" y1="357.4922" y2="357.4922"/><text fill="#000000" font-family="sans-serif" font-size="13" lengthAdjust="spacingAndGlyphs" textLength="74" x="533" y="352.5591">find_loops()</text><polygon fill="#A80036" points="699,382.625,709,386.625,699,390.625,703,386.625" style="stroke: #A80036; stroke-width: 1.0;"/><line style="stroke: #A80036; stroke-width: 1.0;" x1="526" x2="705" y1="386.625" y2="386.625"/><text fill="#000000" font-family="sans-serif" font-size="13" lengthAdjust="spacingAndGlyphs" textLength="161" x="533" y="381.6919">find_unexecuted_nodes()</text><polygon fill="#A80036" points="436,411.7578,426,415.7578,436,419.7578,432,415.7578" style="stroke: #A80036; stroke-width: 1.0;"/><line style="stroke: #A80036; stroke-width: 1.0;" x1="430" x2="525" y1="415.7578" y2="415.7578"/><text fill="#000000" font-family="sans-serif" font-size="13" lengthAdjust="spacingAndGlyphs" textLength="37" x="442" y="410.8247">check</text><polygon fill="#A80036" points="807,440.8906,817,444.8906,807,448.8906,811,444.8906" style="stroke: #A80036; stroke-width: 1.0;"/><line style="stroke: #A80036; stroke-width: 1.0;" x1="425" x2="813" y1="444.8906" y2="444.8906"/><text fill="#000000" font-family="sans-serif" font-size="13" lengthAdjust="spacingAndGlyphs" textLength="135" x="432" y="439.9575">addOutPut(fn, check)</text><polygon fill="#A80036" points="413,470.0234,423,474.0234,413,478.0234,417,474.0234" style="stroke: #A80036; stroke-width: 1.0;"/><line style="stroke: #A80036; stroke-width: 1.0;" x1="80" x2="419" y1="474.0234" y2="474.0234"/><text fill="#000000" font-family="sans-serif" font-size="13" lengthAdjust="spacingAndGlyphs" textLength="32" x="87" y="469.0903">join()</text><polygon fill="#A80036" points="807,499.1563,817,503.1563,807,507.1563,811,503.1563" style="stroke: #A80036; stroke-width: 1.0;"/><line style="stroke: #A80036; stroke-width: 1.0;" x1="80" x2="813" y1="503.1563" y2="503.1563"/><text fill="#000000" font-family="sans-serif" font-size="13" lengthAdjust="spacingAndGlyphs" textLength="86" x="87" y="498.2231">showOutPut()</text></g>
<g transform="translate(0.000000,17.000000) scale(0.100000,-0.100000)"
fill="#000000" stroke="none">
<path d="M21 157 c-29 -35 -16 -97 20 -97 15 0 19 -5 15 -16 -3 -9 -6 -20 -6
-25 0 -5 -4 -9 -10 -9 -14 0 -12 27 3 33 6 3 2 6 -10 6 -30 1 -31 -35 -3 -44
28 -9 47 9 55 51 3 20 9 42 12 50 3 8 -1 14 -11 14 -9 0 -16 -8 -16 -19 0 -26
-15 -34 -30 -16 -13 16 -6 48 16 70 14 13 13 15 -4 15 -11 0 -25 -6 -31 -13z"/>
<path d="M80 150 c0 -13 5 -20 13 -17 6 2 12 10 12 17 0 7 -6 15 -12 18 -8 2
-13 -5 -13 -18z"/>
<path d="M347 164 c-13 -13 -7 -24 14 -24 11 0 19 5 17 12 -5 14 -22 21 -31
12z"/>
<path d="M103 85 c-9 -40 -8 -45 8 -45 13 0 19 9 21 33 2 24 7 31 21 29 10 -2
17 3 17 13 0 10 -9 15 -28 15 -26 0 -30 -5 -39 -45z"/>
<path d="M175 101 c-24 -48 -13 -59 64 -60 63 -1 69 1 79 25 15 31 15 64 1 64
-6 0 -8 -8 -5 -18 4 -10 -1 -27 -10 -38 -14 -18 -15 -17 -9 19 5 29 3 37 -9
37 -9 0 -18 -13 -22 -35 -3 -19 -10 -35 -14 -35 -4 0 -4 16 0 35 8 35 8 35
-26 35 -27 0 -36 -6 -49 -29z m47 -6 c-5 -28 -22 -44 -22 -21 0 21 11 46 20
46 4 0 5 -11 2 -25z"/>
<path d="M340 116 c0 -7 -3 -28 -6 -45 -6 -26 -3 -31 13 -31 10 0 25 6 32 12
11 10 13 10 7 1 -5 -9 3 -13 28 -13 25 0 36 4 36 15 0 8 -4 15 -10 15 -5 0
-10 -4 -10 -10 0 -5 -5 -10 -11 -10 -6 0 -2 12 9 28 36 51 36 52 -2 52 -25 0
-36 -4 -36 -15 0 -8 5 -15 10 -15 6 0 10 5 10 12 0 6 3 9 6 6 9 -10 -19 -46
-39 -52 -17 -4 -18 -1 -13 30 6 27 4 34 -9 34 -8 0 -15 -6 -15 -14z"/>
<path d="M472 118 c-7 -7 -12 -27 -12 -46 0 -30 2 -33 27 -30 17 2 32 12 39
27 7 13 18 28 26 33 10 8 9 8 -4 4 -12 -3 -18 0 -18 9 0 18 -41 20 -58 3z m29
-51 c-13 -13 -15 11 -4 40 7 16 8 15 11 -6 2 -13 -1 -28 -7 -34z"/>
</g>
</svg>