<?xml version="1.0" encoding="UTF-8" standalone="no"?><svg xmlns="http://www.w3.org/2000/svg" xmlns:xlink="http://www.w3.org/1999/xlink" contentScriptType="application/ecmascript" contentStyleType="text/css" height="1047px" preserveAspectRatio="none" style="width:1677px;height:1047px;" version="1.1" viewBox="0 0 1677 1047" width="1677px" zoomAndPan="magnify"><defs><filter height="300%" id="ftjzx8t" width="300%" x="-1" y="-1"><feGaussianBlur result="blurOut" stdDeviation="2.0"/><feColorMatrix in="blurOut" result="blurOut2" type="matrix" values="0 0 0 0 0 0 0 0 0 0 0 0 0 0 0 0 0 0 .4 0"/><feOffset dx="4.0" dy="4.0" in="blurOut2" result="blurOut3"/><feBlend in="SourceGraphic" in2="blurOut3" mode="normal"/></filter></defs><g><!--class Graph--><rect fill="#FEFECE" filter="url(#ftjzx8t)" height="137.6328" style="stroke: #A80036; stroke-width: 1.5;" width="453" x="6" y="474"/><ellipse cx="209.25" cy="490" fill="#ADD1B2" rx="11" ry="11" style="stroke: #A80036; stroke-width: 1.0;"/><path d="M204.25,491.1563 C204.25,493.6563 206.3906,495.4688 209.3125,495.4688 C210.5469,495.4688 211.7188,495.1719 212.4688,494.6563 C213.0781,494.2344 213.4063,493.8125 213.4063,493.4063 C213.4063,492.9375 212.9844,492.5313 212.4844,492.5313 C212.25,492.5313 212.0313,492.6094 211.8281,492.8125 C211.3906,493.25 211.3906,493.25 211.2188,493.3438 C210.7656,493.5781 210.125,493.7188 209.3594,493.7188 C207.3594,493.7188 206.0781,492.7031 206.0781,491.125 L206.0781,490.0781 C206.0781,488.375 207.2969,487.1719 209,487.1719 C209.5781,487.1719 210.1563,487.3125 210.625,487.5625 C211.0938,487.8281 211.2656,488.0156 211.3281,488.375 C211.4531,489.0469 211.7031,489.2969 212.2344,489.2969 C212.5156,489.2969 212.7969,489.1563 212.9844,488.9375 C213.1094,488.7656 213.1563,488.5938 213.1563,488.1563 L213.1563,486.7969 C213.1563,486.375 213.1406,486.2344 213.0156,486.0625 C212.8438,485.8125 212.5625,485.6563 212.2344,485.6563 C211.9219,485.6563 211.7188,485.7656 211.5,486.0313 C210.3281,485.5313 209.8906,485.4219 208.9375,485.4219 C206.2656,485.4219 204.25,487.4375 204.25,490.0625 L204.25,491.1563 Z "/><text fill="#000000" font-family="sans-serif" font-size="12" lengthAdjust="spacingAndGlyphs" textLength="38" x="229.75" y="494.1543">Graph</text><line style="stroke: #A80036; stroke-width: 1.5;" x1="7" x2="458" y1="506" y2="506"/><text fill="#000000" font-family="sans-serif" font-size="11" lengthAdjust="spacingAndGlyphs" textLength="147" x="12" y="520.2104">std::list &lt; Node* &gt; nodes</text><line style="stroke: #A80036; stroke-width: 1.5;" x1="7" x2="458" y1="526.8047" y2="526.8047"/><text fill="#000000" font-family="sans-serif" font-size="11" lengthAdjust="spacingAndGlyphs" textLength="441" x="12" y="541.0151">void _DFS (Node* origin, std::list&lt;Node*&gt;&amp; visited, std::list&lt;Node*&gt;&amp; stack)</text><text fill="#000000" font-family="sans-serif" font-size="11" lengthAdjust="spacingAndGlyphs" textLength="116" x="12" y="553.8198">void _DFS_wrapper()</text><text fill="#000000" font-family="sans-serif" font-size="11" lengthAdjust="spacingAndGlyphs" textLength="63" x="12" y="566.6245">add_node()</text><text fill="#000000" font-family="sans-serif" font-size="11" lengthAdjust="spacingAndGlyphs" textLength="39" x="12" y="579.4292">verify()</text><text fill="#000000" font-family="sans-serif" font-size="11" lengthAdjust="spacingAndGlyphs" textLength="66" x="12" y="592.2339">find_loops()</text><text fill="#000000" font-family="sans-serif" font-size="11" lengthAdjust="spacingAndGlyphs" textLength="141" x="12" y="605.0386">find_unexecuted_nodes()</text><!--class Node--><rect fill="#FEFECE" filter="url(#ftjzx8t)" height="86.4141" style="stroke: #A80036; stroke-width: 1.5;" width="167" x="149" y="672"/><ellipse cx="211.75" cy="688" fill="#ADD1B2" rx="11" ry="11" style="stroke: #A80036; stroke-width: 1.0;"/><path d="M206.75,689.1563 C206.75,691.6563 208.8906,693.4688 211.8125,693.4688 C213.0469,693.4688 214.2188,693.1719 214.9688,692.6563 C215.5781,692.2344 215.9063,691.8125 215.9063,691.4063 C215.9063,690.9375 215.4844,690.5313 214.9844,690.5313 C214.75,690.5313 214.5313,690.6094 214.3281,690.8125 C213.8906,691.25 213.8906,691.25 213.7188,691.3438 C213.2656,691.5781 212.625,691.7188 211.8594,691.7188 C209.8594,691.7188 208.5781,690.7031 208.5781,689.125 L208.5781,688.0781 C208.5781,686.375 209.7969,685.1719 211.5,685.1719 C212.0781,685.1719 212.6563,685.3125 213.125,685.5625 C213.5938,685.8281 213.7656,686.0156 213.8281,686.375 C213.9531,687.0469 214.2031,687.2969 214.7344,687.2969 C215.0156,687.2969 215.2969,687.1563 215.4844,686.9375 C215.6094,686.7656 215.6563,686.5938 215.6563,686.1563 L215.6563,684.7969 C215.6563,684.375 215.6406,684.2344 215.5156,684.0625 C215.3438,683.8125 215.0625,683.6563 214.7344,683.6563 C214.4219,683.6563 214.2188,683.7656 214,684.0313 C212.8281,683.5313 212.3906,683.4219 211.4375,683.4219 C208.7656,683.4219 206.75,685.4375 206.75,688.0625 L206.75,689.1563 Z "/><text fill="#000000" font-family="sans-serif" font-size="12" lengthAdjust="spacingAndGlyphs" textLength="33" x="232.25" y="692.1543">Node</text><line style="stroke: #A80036; stroke-width: 1.5;" x1="150" x2="315" y1="704" y2="704"/><text fill="#000000" font-family="sans-serif" font-size="11" lengthAdjust="spacingAndGlyphs" textLength="130" x="155" y="718.2104">Instruction* instruction</text><text fill="#000000" font-family="sans-serif" font-size="11" lengthAdjust="spacingAndGlyphs" textLength="155" x="155" y="731.0151">std::list&lt;Node*&gt; adjacents</text><line style="stroke: #A80036; stroke-width: 1.5;" x1="150" x2="315" y1="737.6094" y2="737.6094"/><text fill="#000000" font-family="sans-serif" font-size="11" lengthAdjust="spacingAndGlyphs" textLength="59" x="155" y="751.8198">add_next()</text><!--class Instruction--><rect fill="#FEFECE" filter="url(#ftjzx8t)" height="73.6094" style="stroke: #A80036; stroke-width: 1.5;" width="196" x="134.25" y="818"/><ellipse cx="194.5" cy="834" fill="#ADD1B2" rx="11" ry="11" style="stroke: #A80036; stroke-width: 1.0;"/><path d="M189.5,835.1563 C189.5,837.6563 191.6406,839.4688 194.5625,839.4688 C195.7969,839.4688 196.9688,839.1719 197.7188,838.6563 C198.3281,838.2344 198.6563,837.8125 198.6563,837.4063 C198.6563,836.9375 198.2344,836.5313 197.7344,836.5313 C197.5,836.5313 197.2813,836.6094 197.0781,836.8125 C196.6406,837.25 196.6406,837.25 196.4688,837.3438 C196.0156,837.5781 195.375,837.7188 194.6094,837.7188 C192.6094,837.7188 191.3281,836.7031 191.3281,835.125 L191.3281,834.0781 C191.3281,832.375 192.5469,831.1719 194.25,831.1719 C194.8281,831.1719 195.4063,831.3125 195.875,831.5625 C196.3438,831.8281 196.5156,832.0156 196.5781,832.375 C196.7031,833.0469 196.9531,833.2969 197.4844,833.2969 C197.7656,833.2969 198.0469,833.1563 198.2344,832.9375 C198.3594,832.7656 198.4063,832.5938 198.4063,832.1563 L198.4063,830.7969 C198.4063,830.375 198.3906,830.2344 198.2656,830.0625 C198.0938,829.8125 197.8125,829.6563 197.4844,829.6563 C197.1719,829.6563 196.9688,829.7656 196.75,830.0313 C195.5781,829.5313 195.1406,829.4219 194.1875,829.4219 C191.5156,829.4219 189.5,831.4375 189.5,834.0625 L189.5,835.1563 Z "/><text fill="#000000" font-family="sans-serif" font-size="12" lengthAdjust="spacingAndGlyphs" textLength="67" x="215" y="838.1543">Instruction</text><line style="stroke: #A80036; stroke-width: 1.5;" x1="135.25" x2="329.25" y1="850" y2="850"/><text fill="#000000" font-family="sans-serif" font-size="11" lengthAdjust="spacingAndGlyphs" textLength="184" x="140.25" y="864.2104">InstructionType* instructionType</text><line style="stroke: #A80036; stroke-width: 1.5;" x1="135.25" x2="329.25" y1="870.8047" y2="870.8047"/><text fill="#000000" font-family="sans-serif" font-size="11" lengthAdjust="spacingAndGlyphs" textLength="124" x="140.25" y="885.0151">_FindInstructionType()</text><!--class InstrucionType--><rect fill="#FEFECE" filter="url(#ftjzx8t)" height="86.4141" style="stroke: #A80036; stroke-width: 1.5;" width="246" x="109.25" y="952"/><ellipse cx="182.5" cy="968" fill="#ADD1B2" rx="11" ry="11" style="stroke: #A80036; stroke-width: 1.0;"/><path d="M177.5,969.1563 C177.5,971.6563 179.6406,973.4688 182.5625,973.4688 C183.7969,973.4688 184.9688,973.1719 185.7188,972.6563 C186.3281,972.2344 186.6563,971.8125 186.6563,971.4063 C186.6563,970.9375 186.2344,970.5313 185.7344,970.5313 C185.5,970.5313 185.2813,970.6094 185.0781,970.8125 C184.6406,971.25 184.6406,971.25 184.4688,971.3438 C184.0156,971.5781 183.375,971.7188 182.6094,971.7188 C180.6094,971.7188 179.3281,970.7031 179.3281,969.125 L179.3281,968.0781 C179.3281,966.375 180.5469,965.1719 182.25,965.1719 C182.8281,965.1719 183.4063,965.3125 183.875,965.5625 C184.3438,965.8281 184.5156,966.0156 184.5781,966.375 C184.7031,967.0469 184.9531,967.2969 185.4844,967.2969 C185.7656,967.2969 186.0469,967.1563 186.2344,966.9375 C186.3594,966.7656 186.4063,966.5938 186.4063,966.1563 L186.4063,964.7969 C186.4063,964.375 186.3906,964.2344 186.2656,964.0625 C186.0938,963.8125 185.8125,963.6563 185.4844,963.6563 C185.1719,963.6563 184.9688,963.7656 184.75,964.0313 C183.5781,963.5313 183.1406,963.4219 182.1875,963.4219 C179.5156,963.4219 177.5,965.4375 177.5,968.0625 L177.5,969.1563 Z "/><text fill="#000000" font-family="sans-serif" font-size="12" lengthAdjust="spacingAndGlyphs" textLength="91" x="203" y="972.1543">InstrucionType</text><line style="stroke: #A80036; stroke-width: 1.5;" x1="110.25" x2="354.25" y1="984" y2="984"/><line style="stroke: #A80036; stroke-width: 1.5;" x1="110.25" x2="354.25" y1="992" y2="992"/><text fill="#000000" font-family="sans-serif" font-size="11" lengthAdjust="spacingAndGlyphs" textLength="160" x="115.25" y="1006.2104">virtual bool need_tag_code()</text><text fill="#000000" font-family="sans-serif" font-size="11" lengthAdjust="spacingAndGlyphs" textLength="234" x="115.25" y="1019.0151">virtual bool add_tag_code(std::string tag)</text><text fill="#000000" font-family="sans-serif" font-size="11" lengthAdjust="spacingAndGlyphs" textLength="192" x="115.25" y="1031.8198">virtual bool add_next_instruction()</text><!--class JumpConditional2Args--><rect fill="#FEFECE" filter="url(#ftjzx8t)" height="48" style="stroke: #A80036; stroke-width: 1.5;" width="168" x="915.25" y="194"/><ellipse cx="930.25" cy="210" fill="#ADD1B2" rx="11" ry="11" style="stroke: #A80036; stroke-width: 1.0;"/><path d="M925.25,211.1563 C925.25,213.6563 927.3906,215.4688 930.3125,215.4688 C931.5469,215.4688 932.7188,215.1719 933.4688,214.6563 C934.0781,214.2344 934.4063,213.8125 934.4063,213.4063 C934.4063,212.9375 933.9844,212.5313 933.4844,212.5313 C933.25,212.5313 933.0313,212.6094 932.8281,212.8125 C932.3906,213.25 932.3906,213.25 932.2188,213.3438 C931.7656,213.5781 931.125,213.7188 930.3594,213.7188 C928.3594,213.7188 927.0781,212.7031 927.0781,211.125 L927.0781,210.0781 C927.0781,208.375 928.2969,207.1719 930,207.1719 C930.5781,207.1719 931.1563,207.3125 931.625,207.5625 C932.0938,207.8281 932.2656,208.0156 932.3281,208.375 C932.4531,209.0469 932.7031,209.2969 933.2344,209.2969 C933.5156,209.2969 933.7969,209.1563 933.9844,208.9375 C934.1094,208.7656 934.1563,208.5938 934.1563,208.1563 L934.1563,206.7969 C934.1563,206.375 934.1406,206.2344 934.0156,206.0625 C933.8438,205.8125 933.5625,205.6563 933.2344,205.6563 C932.9219,205.6563 932.7188,205.7656 932.5,206.0313 C931.3281,205.5313 930.8906,205.4219 929.9375,205.4219 C927.2656,205.4219 925.25,207.4375 925.25,210.0625 L925.25,211.1563 Z "/><text fill="#000000" font-family="sans-serif" font-size="12" lengthAdjust="spacingAndGlyphs" textLength="136" x="944.25" y="214.1543">JumpConditional2Args</text><line style="stroke: #A80036; stroke-width: 1.5;" x1="916.25" x2="1082.25" y1="226" y2="226"/><line style="stroke: #A80036; stroke-width: 1.5;" x1="916.25" x2="1082.25" y1="234" y2="234"/><!--class JumpConditional3Args--><rect fill="#FEFECE" filter="url(#ftjzx8t)" height="48" style="stroke: #A80036; stroke-width: 1.5;" width="168" x="1118.25" y="194"/><ellipse cx="1133.25" cy="210" fill="#ADD1B2" rx="11" ry="11" style="stroke: #A80036; stroke-width: 1.0;"/><path d="M1128.25,211.1563 C1128.25,213.6563 1130.3906,215.4688 1133.3125,215.4688 C1134.5469,215.4688 1135.7188,215.1719 1136.4688,214.6563 C1137.0781,214.2344 1137.4063,213.8125 1137.4063,213.4063 C1137.4063,212.9375 1136.9844,212.5313 1136.4844,212.5313 C1136.25,212.5313 1136.0313,212.6094 1135.8281,212.8125 C1135.3906,213.25 1135.3906,213.25 1135.2188,213.3438 C1134.7656,213.5781 1134.125,213.7188 1133.3594,213.7188 C1131.3594,213.7188 1130.0781,212.7031 1130.0781,211.125 L1130.0781,210.0781 C1130.0781,208.375 1131.2969,207.1719 1133,207.1719 C1133.5781,207.1719 1134.1563,207.3125 1134.625,207.5625 C1135.0938,207.8281 1135.2656,208.0156 1135.3281,208.375 C1135.4531,209.0469 1135.7031,209.2969 1136.2344,209.2969 C1136.5156,209.2969 1136.7969,209.1563 1136.9844,208.9375 C1137.1094,208.7656 1137.1563,208.5938 1137.1563,208.1563 L1137.1563,206.7969 C1137.1563,206.375 1137.1406,206.2344 1137.0156,206.0625 C1136.8438,205.8125 1136.5625,205.6563 1136.2344,205.6563 C1135.9219,205.6563 1135.7188,205.7656 1135.5,206.0313 C1134.3281,205.5313 1133.8906,205.4219 1132.9375,205.4219 C1130.2656,205.4219 1128.25,207.4375 1128.25,210.0625 L1128.25,211.1563 Z "/><text fill="#000000" font-family="sans-serif" font-size="12" lengthAdjust="spacingAndGlyphs" textLength="136" x="1147.25" y="214.1543">JumpConditional3Args</text><line style="stroke: #A80036; stroke-width: 1.5;" x1="1119.25" x2="1285.25" y1="226" y2="226"/><line style="stroke: #A80036; stroke-width: 1.5;" x1="1119.25" x2="1285.25" y1="234" y2="234"/><!--class JumpUnconditional--><rect fill="#FEFECE" filter="url(#ftjzx8t)" height="48" style="stroke: #A80036; stroke-width: 1.5;" width="148" x="1321.25" y="194"/><ellipse cx="1336.25" cy="210" fill="#ADD1B2" rx="11" ry="11" style="stroke: #A80036; stroke-width: 1.0;"/><path d="M1331.25,211.1563 C1331.25,213.6563 1333.3906,215.4688 1336.3125,215.4688 C1337.5469,215.4688 1338.7188,215.1719 1339.4688,214.6563 C1340.0781,214.2344 1340.4063,213.8125 1340.4063,213.4063 C1340.4063,212.9375 1339.9844,212.5313 1339.4844,212.5313 C1339.25,212.5313 1339.0313,212.6094 1338.8281,212.8125 C1338.3906,213.25 1338.3906,213.25 1338.2188,213.3438 C1337.7656,213.5781 1337.125,213.7188 1336.3594,213.7188 C1334.3594,213.7188 1333.0781,212.7031 1333.0781,211.125 L1333.0781,210.0781 C1333.0781,208.375 1334.2969,207.1719 1336,207.1719 C1336.5781,207.1719 1337.1563,207.3125 1337.625,207.5625 C1338.0938,207.8281 1338.2656,208.0156 1338.3281,208.375 C1338.4531,209.0469 1338.7031,209.2969 1339.2344,209.2969 C1339.5156,209.2969 1339.7969,209.1563 1339.9844,208.9375 C1340.1094,208.7656 1340.1563,208.5938 1340.1563,208.1563 L1340.1563,206.7969 C1340.1563,206.375 1340.1406,206.2344 1340.0156,206.0625 C1339.8438,205.8125 1339.5625,205.6563 1339.2344,205.6563 C1338.9219,205.6563 1338.7188,205.7656 1338.5,206.0313 C1337.3281,205.5313 1336.8906,205.4219 1335.9375,205.4219 C1333.2656,205.4219 1331.25,207.4375 1331.25,210.0625 L1331.25,211.1563 Z "/><text fill="#000000" font-family="sans-serif" font-size="12" lengthAdjust="spacingAndGlyphs" textLength="116" x="1350.25" y="214.1543">JumpUnconditional</text><line style="stroke: #A80036; stroke-width: 1.5;" x1="1322.25" x2="1468.25" y1="226" y2="226"/><line style="stroke: #A80036; stroke-width: 1.5;" x1="1322.25" x2="1468.25" y1="234" y2="234"/><!--class UndefinedInstruction--><rect fill="#FEFECE" filter="url(#ftjzx8t)" height="48" style="stroke: #A80036; stroke-width: 1.5;" width="163" x="1505" y="194"/><ellipse cx="1520" cy="210" fill="#ADD1B2" rx="11" ry="11" style="stroke: #A80036; stroke-width: 1.0;"/><path d="M1515,211.1563 C1515,213.6563 1517.1406,215.4688 1520.0625,215.4688 C1521.2969,215.4688 1522.4688,215.1719 1523.2188,214.6563 C1523.8281,214.2344 1524.1563,213.8125 1524.1563,213.4063 C1524.1563,212.9375 1523.7344,212.5313 1523.2344,212.5313 C1523,212.5313 1522.7813,212.6094 1522.5781,212.8125 C1522.1406,213.25 1522.1406,213.25 1521.9688,213.3438 C1521.5156,213.5781 1520.875,213.7188 1520.1094,213.7188 C1518.1094,213.7188 1516.8281,212.7031 1516.8281,211.125 L1516.8281,210.0781 C1516.8281,208.375 1518.0469,207.1719 1519.75,207.1719 C1520.3281,207.1719 1520.9063,207.3125 1521.375,207.5625 C1521.8438,207.8281 1522.0156,208.0156 1522.0781,208.375 C1522.2031,209.0469 1522.4531,209.2969 1522.9844,209.2969 C1523.2656,209.2969 1523.5469,209.1563 1523.7344,208.9375 C1523.8594,208.7656 1523.9063,208.5938 1523.9063,208.1563 L1523.9063,206.7969 C1523.9063,206.375 1523.8906,206.2344 1523.7656,206.0625 C1523.5938,205.8125 1523.3125,205.6563 1522.9844,205.6563 C1522.6719,205.6563 1522.4688,205.7656 1522.25,206.0313 C1521.0781,205.5313 1520.6406,205.4219 1519.6875,205.4219 C1517.0156,205.4219 1515,207.4375 1515,210.0625 L1515,211.1563 Z "/><text fill="#000000" font-family="sans-serif" font-size="12" lengthAdjust="spacingAndGlyphs" textLength="131" x="1534" y="214.1543">UndefinedInstruction</text><line style="stroke: #A80036; stroke-width: 1.5;" x1="1506" x2="1667" y1="226" y2="226"/><line style="stroke: #A80036; stroke-width: 1.5;" x1="1506" x2="1667" y1="234" y2="234"/><!--class eBPF--><rect fill="#FEFECE" filter="url(#ftjzx8t)" height="86.4141" style="stroke: #A80036; stroke-width: 1.5;" width="84" x="190.25" y="328"/><ellipse cx="214.7" cy="344" fill="#ADD1B2" rx="11" ry="11" style="stroke: #A80036; stroke-width: 1.0;"/><path d="M209.7,345.1563 C209.7,347.6563 211.8406,349.4688 214.7625,349.4688 C215.9969,349.4688 217.1688,349.1719 217.9188,348.6563 C218.5281,348.2344 218.8563,347.8125 218.8563,347.4063 C218.8563,346.9375 218.4344,346.5313 217.9344,346.5313 C217.7,346.5313 217.4813,346.6094 217.2781,346.8125 C216.8406,347.25 216.8406,347.25 216.6688,347.3438 C216.2156,347.5781 215.575,347.7188 214.8094,347.7188 C212.8094,347.7188 211.5281,346.7031 211.5281,345.125 L211.5281,344.0781 C211.5281,342.375 212.7469,341.1719 214.45,341.1719 C215.0281,341.1719 215.6063,341.3125 216.075,341.5625 C216.5438,341.8281 216.7156,342.0156 216.7781,342.375 C216.9031,343.0469 217.1531,343.2969 217.6844,343.2969 C217.9656,343.2969 218.2469,343.1563 218.4344,342.9375 C218.5594,342.7656 218.6063,342.5938 218.6063,342.1563 L218.6063,340.7969 C218.6063,340.375 218.5906,340.2344 218.4656,340.0625 C218.2938,339.8125 218.0125,339.6563 217.6844,339.6563 C217.3719,339.6563 217.1688,339.7656 216.95,340.0313 C215.7781,339.5313 215.3406,339.4219 214.3875,339.4219 C211.7156,339.4219 209.7,341.4375 209.7,344.0625 L209.7,345.1563 Z "/><text fill="#000000" font-family="sans-serif" font-size="12" lengthAdjust="spacingAndGlyphs" textLength="31" x="230.8" y="348.1543">eBPF</text><line style="stroke: #A80036; stroke-width: 1.5;" x1="191.25" x2="273.25" y1="360" y2="360"/><text fill="#000000" font-family="sans-serif" font-size="11" lengthAdjust="spacingAndGlyphs" textLength="72" x="196.25" y="374.2104">Graph graph</text><line style="stroke: #A80036; stroke-width: 1.5;" x1="191.25" x2="273.25" y1="380.8047" y2="380.8047"/><text fill="#000000" font-family="sans-serif" font-size="11" lengthAdjust="spacingAndGlyphs" textLength="67" x="196.25" y="395.0151">read_code()</text><text fill="#000000" font-family="sans-serif" font-size="11" lengthAdjust="spacingAndGlyphs" textLength="39" x="196.25" y="407.8198">verify()</text><!--class ThreadEbpfStarter--><rect fill="#FEFECE" filter="url(#ftjzx8t)" height="48" style="stroke: #A80036; stroke-width: 1.5;" width="148" x="411.25" y="34"/><ellipse cx="426.25" cy="50" fill="#ADD1B2" rx="11" ry="11" style="stroke: #A80036; stroke-width: 1.0;"/><path d="M421.25,51.1563 C421.25,53.6563 423.3906,55.4688 426.3125,55.4688 C427.5469,55.4688 428.7188,55.1719 429.4688,54.6563 C430.0781,54.2344 430.4063,53.8125 430.4063,53.4063 C430.4063,52.9375 429.9844,52.5313 429.4844,52.5313 C429.25,52.5313 429.0313,52.6094 428.8281,52.8125 C428.3906,53.25 428.3906,53.25 428.2188,53.3438 C427.7656,53.5781 427.125,53.7188 426.3594,53.7188 C424.3594,53.7188 423.0781,52.7031 423.0781,51.125 L423.0781,50.0781 C423.0781,48.375 424.2969,47.1719 426,47.1719 C426.5781,47.1719 427.1563,47.3125 427.625,47.5625 C428.0938,47.8281 428.2656,48.0156 428.3281,48.375 C428.4531,49.0469 428.7031,49.2969 429.2344,49.2969 C429.5156,49.2969 429.7969,49.1563 429.9844,48.9375 C430.1094,48.7656 430.1563,48.5938 430.1563,48.1563 L430.1563,46.7969 C430.1563,46.375 430.1406,46.2344 430.0156,46.0625 C429.8438,45.8125 429.5625,45.6563 429.2344,45.6563 C428.9219,45.6563 428.7188,45.7656 428.5,46.0313 C427.3281,45.5313 426.8906,45.4219 425.9375,45.4219 C423.2656,45.4219 421.25,47.4375 421.25,50.0625 L421.25,51.1563 Z "/><text fill="#000000" font-family="sans-serif" font-size="12" lengthAdjust="spacingAndGlyphs" textLength="116" x="440.25" y="54.1543">ThreadEbpfStarter</text><line style="stroke: #A80036; stroke-width: 1.5;" x1="412.25" x2="558.25" y1="66" y2="66"/><line style="stroke: #A80036; stroke-width: 1.5;" x1="412.25" x2="558.25" y1="74" y2="74"/><!--class Thread--><rect fill="#FEFECE" filter="url(#ftjzx8t)" height="99.2188" style="stroke: #A80036; stroke-width: 1.5;" width="116" x="174.25" y="8.5"/><ellipse cx="207.25" cy="24.5" fill="#ADD1B2" rx="11" ry="11" style="stroke: #A80036; stroke-width: 1.0;"/><path d="M202.25,25.6563 C202.25,28.1563 204.3906,29.9688 207.3125,29.9688 C208.5469,29.9688 209.7188,29.6719 210.4688,29.1563 C211.0781,28.7344 211.4063,28.3125 211.4063,27.9063 C211.4063,27.4375 210.9844,27.0313 210.4844,27.0313 C210.25,27.0313 210.0313,27.1094 209.8281,27.3125 C209.3906,27.75 209.3906,27.75 209.2188,27.8438 C208.7656,28.0781 208.125,28.2188 207.3594,28.2188 C205.3594,28.2188 204.0781,27.2031 204.0781,25.625 L204.0781,24.5781 C204.0781,22.875 205.2969,21.6719 207,21.6719 C207.5781,21.6719 208.1563,21.8125 208.625,22.0625 C209.0938,22.3281 209.2656,22.5156 209.3281,22.875 C209.4531,23.5469 209.7031,23.7969 210.2344,23.7969 C210.5156,23.7969 210.7969,23.6563 210.9844,23.4375 C211.1094,23.2656 211.1563,23.0938 211.1563,22.6563 L211.1563,21.2969 C211.1563,20.875 211.1406,20.7344 211.0156,20.5625 C210.8438,20.3125 210.5625,20.1563 210.2344,20.1563 C209.9219,20.1563 209.7188,20.2656 209.5,20.5313 C208.3281,20.0313 207.8906,19.9219 206.9375,19.9219 C204.2656,19.9219 202.25,21.9375 202.25,24.5625 L202.25,25.6563 Z "/><text fill="#000000" font-family="sans-serif" font-size="12" lengthAdjust="spacingAndGlyphs" textLength="44" x="225.25" y="28.6543">Thread</text><line style="stroke: #A80036; stroke-width: 1.5;" x1="175.25" x2="289.25" y1="40.5" y2="40.5"/><text fill="#000000" font-family="sans-serif" font-size="11" lengthAdjust="spacingAndGlyphs" textLength="104" x="180.25" y="54.7104">std::thread thread</text><line style="stroke: #A80036; stroke-width: 1.5;" x1="175.25" x2="289.25" y1="61.3047" y2="61.3047"/><text fill="#000000" font-family="sans-serif" font-size="11" lengthAdjust="spacingAndGlyphs" textLength="62" x="180.25" y="75.5151">void start()</text><text fill="#000000" font-family="sans-serif" font-size="11" lengthAdjust="spacingAndGlyphs" textLength="55" x="180.25" y="88.3198">void join()</text><text fill="#000000" font-family="sans-serif" font-size="11" lengthAdjust="spacingAndGlyphs" textLength="93" x="180.25" y="101.1245">virtual void run()</text><!--class ThreadEbfp--><rect fill="#FEFECE" filter="url(#ftjzx8t)" height="48" style="stroke: #A80036; stroke-width: 1.5;" width="104" x="180.25" y="194"/><ellipse cx="195.25" cy="210" fill="#ADD1B2" rx="11" ry="11" style="stroke: #A80036; stroke-width: 1.0;"/><path d="M190.25,211.1563 C190.25,213.6563 192.3906,215.4688 195.3125,215.4688 C196.5469,215.4688 197.7188,215.1719 198.4688,214.6563 C199.0781,214.2344 199.4063,213.8125 199.4063,213.4063 C199.4063,212.9375 198.9844,212.5313 198.4844,212.5313 C198.25,212.5313 198.0313,212.6094 197.8281,212.8125 C197.3906,213.25 197.3906,213.25 197.2188,213.3438 C196.7656,213.5781 196.125,213.7188 195.3594,213.7188 C193.3594,213.7188 192.0781,212.7031 192.0781,211.125 L192.0781,210.0781 C192.0781,208.375 193.2969,207.1719 195,207.1719 C195.5781,207.1719 196.1563,207.3125 196.625,207.5625 C197.0938,207.8281 197.2656,208.0156 197.3281,208.375 C197.4531,209.0469 197.7031,209.2969 198.2344,209.2969 C198.5156,209.2969 198.7969,209.1563 198.9844,208.9375 C199.1094,208.7656 199.1563,208.5938 199.1563,208.1563 L199.1563,206.7969 C199.1563,206.375 199.1406,206.2344 199.0156,206.0625 C198.8438,205.8125 198.5625,205.6563 198.2344,205.6563 C197.9219,205.6563 197.7188,205.7656 197.5,206.0313 C196.3281,205.5313 195.8906,205.4219 194.9375,205.4219 C192.2656,205.4219 190.25,207.4375 190.25,210.0625 L190.25,211.1563 Z "/><text fill="#000000" font-family="sans-serif" font-size="12" lengthAdjust="spacingAndGlyphs" textLength="72" x="209.25" y="214.1543">ThreadEbfp</text><line style="stroke: #A80036; stroke-width: 1.5;" x1="181.25" x2="283.25" y1="226" y2="226"/><line style="stroke: #A80036; stroke-width: 1.5;" x1="181.25" x2="283.25" y1="234" y2="234"/><!--class OutPutController--><rect fill="#FEFECE" filter="url(#ftjzx8t)" height="99.2188" style="stroke: #A80036; stroke-width: 1.5;" width="332" x="319.25" y="168.5"/><ellipse cx="429" cy="184.5" fill="#ADD1B2" rx="11" ry="11" style="stroke: #A80036; stroke-width: 1.0;"/><path d="M424,185.6563 C424,188.1563 426.1406,189.9688 429.0625,189.9688 C430.2969,189.9688 431.4688,189.6719 432.2188,189.1563 C432.8281,188.7344 433.1563,188.3125 433.1563,187.9063 C433.1563,187.4375 432.7344,187.0313 432.2344,187.0313 C432,187.0313 431.7813,187.1094 431.5781,187.3125 C431.1406,187.75 431.1406,187.75 430.9688,187.8438 C430.5156,188.0781 429.875,188.2188 429.1094,188.2188 C427.1094,188.2188 425.8281,187.2031 425.8281,185.625 L425.8281,184.5781 C425.8281,182.875 427.0469,181.6719 428.75,181.6719 C429.3281,181.6719 429.9063,181.8125 430.375,182.0625 C430.8438,182.3281 431.0156,182.5156 431.0781,182.875 C431.2031,183.5469 431.4531,183.7969 431.9844,183.7969 C432.2656,183.7969 432.5469,183.6563 432.7344,183.4375 C432.8594,183.2656 432.9063,183.0938 432.9063,182.6563 L432.9063,181.2969 C432.9063,180.875 432.8906,180.7344 432.7656,180.5625 C432.5938,180.3125 432.3125,180.1563 431.9844,180.1563 C431.6719,180.1563 431.4688,180.2656 431.25,180.5313 C430.0781,180.0313 429.6406,179.9219 428.6875,179.9219 C426.0156,179.9219 424,181.9375 424,184.5625 L424,185.6563 Z "/><text fill="#000000" font-family="sans-serif" font-size="12" lengthAdjust="spacingAndGlyphs" textLength="104" x="449.5" y="188.6543">OutPutController</text><line style="stroke: #A80036; stroke-width: 1.5;" x1="320.25" x2="650.25" y1="200.5" y2="200.5"/><text fill="#000000" font-family="sans-serif" font-size="11" lengthAdjust="spacingAndGlyphs" textLength="167" x="325.25" y="214.7104">std::list&lt;std::string&gt; outPuts</text><text fill="#000000" font-family="sans-serif" font-size="11" lengthAdjust="spacingAndGlyphs" textLength="86" x="325.25" y="227.5151">std::mutex mtx</text><line style="stroke: #A80036; stroke-width: 1.5;" x1="320.25" x2="650.25" y1="234.1094" y2="234.1094"/><text fill="#000000" font-family="sans-serif" font-size="11" lengthAdjust="spacingAndGlyphs" textLength="320" x="325.25" y="248.3198">addOutPut(std::string outPutFn, std::string outPutCheck)</text><text fill="#000000" font-family="sans-serif" font-size="11" lengthAdjust="spacingAndGlyphs" textLength="76" x="325.25" y="261.1245">showOutPut()</text><!--class FileController--><rect fill="#FEFECE" filter="url(#ftjzx8t)" height="99.2188" style="stroke: #A80036; stroke-width: 1.5;" width="194" x="686.25" y="168.5"/><ellipse cx="738" cy="184.5" fill="#ADD1B2" rx="11" ry="11" style="stroke: #A80036; stroke-width: 1.0;"/><path d="M733,185.6563 C733,188.1563 735.1406,189.9688 738.0625,189.9688 C739.2969,189.9688 740.4688,189.6719 741.2188,189.1563 C741.8281,188.7344 742.1563,188.3125 742.1563,187.9063 C742.1563,187.4375 741.7344,187.0313 741.2344,187.0313 C741,187.0313 740.7813,187.1094 740.5781,187.3125 C740.1406,187.75 740.1406,187.75 739.9688,187.8438 C739.5156,188.0781 738.875,188.2188 738.1094,188.2188 C736.1094,188.2188 734.8281,187.2031 734.8281,185.625 L734.8281,184.5781 C734.8281,182.875 736.0469,181.6719 737.75,181.6719 C738.3281,181.6719 738.9063,181.8125 739.375,182.0625 C739.8438,182.3281 740.0156,182.5156 740.0781,182.875 C740.2031,183.5469 740.4531,183.7969 740.9844,183.7969 C741.2656,183.7969 741.5469,183.6563 741.7344,183.4375 C741.8594,183.2656 741.9063,183.0938 741.9063,182.6563 L741.9063,181.2969 C741.9063,180.875 741.8906,180.7344 741.7656,180.5625 C741.5938,180.3125 741.3125,180.1563 740.9844,180.1563 C740.6719,180.1563 740.4688,180.2656 740.25,180.5313 C739.0781,180.0313 738.6406,179.9219 737.6875,179.9219 C735.0156,179.9219 733,181.9375 733,184.5625 L733,185.6563 Z "/><text fill="#000000" font-family="sans-serif" font-size="12" lengthAdjust="spacingAndGlyphs" textLength="82" x="758.5" y="188.6543">FileController</text><line style="stroke: #A80036; stroke-width: 1.5;" x1="687.25" x2="879.25" y1="200.5" y2="200.5"/><text fill="#000000" font-family="sans-serif" font-size="11" lengthAdjust="spacingAndGlyphs" textLength="86" x="692.25" y="214.7104">std::mutex mtx</text><text fill="#000000" font-family="sans-serif" font-size="11" lengthAdjust="spacingAndGlyphs" textLength="168" x="692.25" y="227.5151">std::list&lt;const char*&gt; fileList</text><line style="stroke: #A80036; stroke-width: 1.5;" x1="687.25" x2="879.25" y1="234.1094" y2="234.1094"/><text fill="#000000" font-family="sans-serif" font-size="11" lengthAdjust="spacingAndGlyphs" textLength="182" x="692.25" y="248.3198">receiveFileName(const char* fn)</text><text fill="#000000" font-family="sans-serif" font-size="11" lengthAdjust="spacingAndGlyphs" textLength="78" x="692.25" y="261.1245">getFileName()</text><!--class InstructionType--><rect fill="#FEFECE" filter="url(#ftjzx8t)" height="48" style="stroke: #A80036; stroke-width: 1.5;" width="128" x="1234.25" y="34"/><ellipse cx="1249.25" cy="50" fill="#ADD1B2" rx="11" ry="11" style="stroke: #A80036; stroke-width: 1.0;"/><path d="M1244.25,51.1563 C1244.25,53.6563 1246.3906,55.4688 1249.3125,55.4688 C1250.5469,55.4688 1251.7188,55.1719 1252.4688,54.6563 C1253.0781,54.2344 1253.4063,53.8125 1253.4063,53.4063 C1253.4063,52.9375 1252.9844,52.5313 1252.4844,52.5313 C1252.25,52.5313 1252.0313,52.6094 1251.8281,52.8125 C1251.3906,53.25 1251.3906,53.25 1251.2188,53.3438 C1250.7656,53.5781 1250.125,53.7188 1249.3594,53.7188 C1247.3594,53.7188 1246.0781,52.7031 1246.0781,51.125 L1246.0781,50.0781 C1246.0781,48.375 1247.2969,47.1719 1249,47.1719 C1249.5781,47.1719 1250.1563,47.3125 1250.625,47.5625 C1251.0938,47.8281 1251.2656,48.0156 1251.3281,48.375 C1251.4531,49.0469 1251.7031,49.2969 1252.2344,49.2969 C1252.5156,49.2969 1252.7969,49.1563 1252.9844,48.9375 C1253.1094,48.7656 1253.1563,48.5938 1253.1563,48.1563 L1253.1563,46.7969 C1253.1563,46.375 1253.1406,46.2344 1253.0156,46.0625 C1252.8438,45.8125 1252.5625,45.6563 1252.2344,45.6563 C1251.9219,45.6563 1251.7188,45.7656 1251.5,46.0313 C1250.3281,45.5313 1249.8906,45.4219 1248.9375,45.4219 C1246.2656,45.4219 1244.25,47.4375 1244.25,50.0625 L1244.25,51.1563 Z "/><text fill="#000000" font-family="sans-serif" font-size="12" lengthAdjust="spacingAndGlyphs" textLength="96" x="1263.25" y="54.1543">InstructionType</text><line style="stroke: #A80036; stroke-width: 1.5;" x1="1235.25" x2="1361.25" y1="66" y2="66"/><line style="stroke: #A80036; stroke-width: 1.5;" x1="1235.25" x2="1361.25" y1="74" y2="74"/><path d="M1236.76,91.493 C1179.09,121.965 1094.3,166.774 1043.16,193.794 " fill="none" style="stroke: #A80036; stroke-width: 1.0;"/><polygon fill="none" points="1233.5,85.299,1254.45,82.144,1240.04,97.677,1233.5,85.299" style="stroke: #A80036; stroke-width: 1.0;"/><path d="M1273.66,99.466 C1255.48,129.398 1231.35,169.104 1216.32,193.848 " fill="none" style="stroke: #A80036; stroke-width: 1.0;"/><polygon fill="none" points="1267.72,95.771,1284.08,82.313,1279.68,103.041,1267.72,95.771" style="stroke: #A80036; stroke-width: 1.0;"/><path d="M1323.09,99.466 C1341.47,129.398 1365.85,169.104 1381.04,193.848 " fill="none" style="stroke: #A80036; stroke-width: 1.0;"/><polygon fill="none" points="1317.06,103.02,1312.56,82.313,1328.99,95.695,1317.06,103.02" style="stroke: #A80036; stroke-width: 1.0;"/><path d="M1358.2,91.89 C1413.73,122.353 1494.91,166.891 1543.95,193.794 " fill="none" style="stroke: #A80036; stroke-width: 1.0;"/><polygon fill="none" points="1354.6,97.901,1340.44,82.144,1361.34,85.626,1354.6,97.901" style="stroke: #A80036; stroke-width: 1.0;"/><path d="M232.25,905.621 C232.25,920.682 232.25,937.083 232.25,951.6223 " fill="none" style="stroke: #A80036; stroke-width: 1.0;"/><polygon fill="#FFFFFF" points="232.25,892.258,228.25,898.258,232.25,904.258,236.25,898.258,232.25,892.258" style="stroke: #A80036; stroke-width: 1.0;"/><path d="M232.25,771.497 C232.25,787.055 232.25,803.566 232.25,817.697 " fill="none" style="stroke: #A80036; stroke-width: 1.0;"/><polygon fill="#FFFFFF" points="232.25,758.154,228.25,764.154,232.25,770.154,236.25,764.154,232.25,758.154" style="stroke: #A80036; stroke-width: 1.0;"/><path d="M232.25,625.52 C232.25,641.523 232.25,657.69 232.25,671.749 " fill="none" style="stroke: #A80036; stroke-width: 1.0;"/><polygon fill="#FFFFFF" points="232.25,612.166,228.25,618.166,232.25,624.166,236.25,618.166,232.25,612.166" style="stroke: #A80036; stroke-width: 1.0;"/><path d="M232.25,427.187 C232.25,442.013 232.25,458.225 232.25,473.672 " fill="none" style="stroke: #A80036; stroke-width: 1.0;"/><polygon fill="#FFFFFF" points="232.25,414.022,228.25,420.022,232.25,426.022,236.25,420.022,232.25,414.022" style="stroke: #A80036; stroke-width: 1.0;"/><path d="M232.25,127.918 C232.25,151.535 232.25,176.374 232.25,193.806 " fill="none" style="stroke: #A80036; stroke-width: 1.0;"/><polygon fill="none" points="225.25,127.694,232.25,107.694,239.25,127.694,225.25,127.694" style="stroke: #A80036; stroke-width: 1.0;"/><path d="M432.529,88.684 C395.354,109.988 344.656,139.8 301.25,168 C288.806,176.085 275.441,185.417 263.819,193.754 " fill="none" style="stroke: #A80036; stroke-width: 1.0;"/><polygon fill="#FFFFFF" points="444.098,82.079,436.9042,81.5801,433.6768,88.0287,440.8706,88.5276,444.098,82.079" style="stroke: #A80036; stroke-width: 1.0;"/><path d="M485.25,95.571 C485.25,117.236 485.25,144.954 485.25,168.437 " fill="none" style="stroke: #A80036; stroke-width: 1.0;"/><polygon fill="#FFFFFF" points="485.25,82.313,481.25,88.313,485.25,94.313,489.25,88.313,485.25,82.313" style="stroke: #A80036; stroke-width: 1.0;"/><path d="M540.654,88.375 C583.03,110.843 642.378,142.31 691.767,168.496 " fill="none" style="stroke: #A80036; stroke-width: 1.0;"/><polygon fill="#FFFFFF" points="528.901,82.144,532.3278,88.4888,539.5026,87.7659,536.0758,81.4211,528.901,82.144" style="stroke: #A80036; stroke-width: 1.0;"/><path d="M232.25,242.263 C232.25,263.591 232.25,295.828 232.25,322.58 " fill="none" style="stroke: #A80036; stroke-width: 1.0;"/><polygon fill="#A80036" points="232.25,327.853,236.25,318.853,232.25,322.853,228.25,318.853,232.25,327.853" style="stroke: #A80036; stroke-width: 1.0;"/></g>
<g transform="translate(0.000000,17.000000) scale(0.100000,-0.100000)"
fill="#000000" stroke="none">
<path d="M21 157 c-29 -35 -16 -97 20 -97 15 0 19 -5 15 -16 -3 -9 -6 -20 -6
-25 0 -5 -4 -9 -10 -9 -14 0 -12 27 3 33 6 3 2 6 -10 6 -30 1 -31 -35 -3 -44
28 -9 47 9 55 51 3 20 9 42 12 50 3 8 -1 14 -11 14 -9 0 -16 -8 -16 -19 0 -26
-15 -34 -30 -16 -13 16 -6 48 16 70 14 13 13 15 -4 15 -11 0 -25 -6 -31 -13z"/>
<path d="M80 150 c0 -13 5 -20 13 -17 6 2 12 10 12 17 0 7 -6 15 -12 18 -8 2
-13 -5 -13 -18z"/>
<path d="M347 164 c-13 -13 -7 -24 14 -24 11 0 19 5 17 12 -5 14 -22 21 -31
12z"/>
<path d="M103 85 c-9 -40 -8 -45 8 -45 13 0 19 9 21 33 2 24 7 31 21 29 10 -2
17 3 17 13 0 10 -9 15 -28 15 -26 0 -30 -5 -39 -45z"/>
<path d="M175 101 c-24 -48 -13 -59 64 -60 63 -1 69 1 79 25 15 31 15 64 1 64
-6 0 -8 -8 -5 -18 4 -10 -1 -27 -10 -38 -14 -18 -15 -17 -9 19 5 29 3 37 -9
37 -9 0 -18 -13 -22 -35 -3 -19 -10 -35 -14 -35 -4 0 -4 16 0 35 8 35 8 35
-26 35 -27 0 -36 -6 -49 -29z m47 -6 c-5 -28 -22 -44 -22 -21 0 21 11 46 20
46 4 0 5 -11 2 -25z"/>
<path d="M340 116 c0 -7 -3 -28 -6 -45 -6 -26 -3 -31 13 -31 10 0 25 6 32 12
11 10 13 10 7 1 -5 -9 3 -13 28 -13 25 0 36 4 36 15 0 8 -4 15 -10 15 -5 0
-10 -4 -10 -10 0 -5 -5 -10 -11 -10 -6 0 -2 12 9 28 36 51 36 52 -2 52 -25 0
-36 -4 -36 -15 0 -8 5 -15 10 -15 6 0 10 5 10 12 0 6 3 9 6 6 9 -10 -19 -46
-39 -52 -17 -4 -18 -1 -13 30 6 27 4 34 -9 34 -8 0 -15 -6 -15 -14z"/>
<path d="M472 118 c-7 -7 -12 -27 -12 -46 0 -30 2 -33 27 -30 17 2 32 12 39
27 7 13 18 28 26 33 10 8 9 8 -4 4 -12 -3 -18 0 -18 9 0 18 -41 20 -58 3z m29
-51 c-13 -13 -15 11 -4 40 7 16 8 15 11 -6 2 -13 -1 -28 -7 -34z"/>
</g>
</svg>